# xmcd
#
# Track frame offsets:
#	150
#	18053
#	49057
#	73992
#	87682
#	107015
#	131660
#	148908
#	172321
#	184020
#	202359
#	220869
#	233096
#	255244
#	279071
#	291056
#	314913
#	336252
#
# Disc length: 4765 seconds
#
# Revision: 0
# Processed by: cddbd v1.5.2PL0 Copyright (c) Steve Scherf et al.
# Submitted via: EasyCDDAExtractor 4.6.9.1
#
DISCID=21129b12
DTITLE=Various Artist - Hillbilly Highlights Vol 1
DYEAR=2006
DGENRE=
TTITLE0=Tim O'brien - Muswell Hillbilly
TTITLE1=Eric Bibb - Just Like A Woman
TTITLE2=Dave Alvin and The Guilty Men - Andersonville
TTITLE3=Dan Hicks and His Hot Licks - Where's The Money
TTITLE4=Jorma Kaukonen - Just Because
TTITLE5=Alejandro Escovedo - Wave
TTITLE6=The Cash Brothers - Nebraska
TTITLE7=Solomon Burke - Stepchild
TTITLE8=James Carr- The Dark End Of The Street
TTITLE9=Calexico - Service And Repair
TTITLE10=Bob Dylan - High Water
TTITLE11=Doc Watson - Sitting On Top Of The World
TTITLE12=Gillian Welch - Elvis Presley Blues
TTITLE13=Jerry Garcia Accoustic Band - I'm Here To Get My Baby Out Of Jail
TTITLE14=Johnny Cash - That Lucky Old Sun
TTITLE15=Katy Moffat - Me And My Uncle
TTITLE16=Koos Kombuis - Verslaaf!
TTITLE17=Piet Botha - Van Tonder Deel Ii
EXTD=
EXTT0=
EXTT1=
EXTT2=
EXTT3=
EXTT4=
EXTT5=
EXTT6=
EXTT7=
EXTT8=
EXTT9=
EXTT10=
EXTT11=
EXTT12=
EXTT13=
EXTT14=
EXTT15=
EXTT16=
EXTT17=
PLAYORDER=
